<?xml version="1.0" encoding="utf-8"?>
<!-- Generator: Adobe Illustrator 23.0.1, SVG Export Plug-In . SVG Version: 6.00 Build 0)  -->
<svg version="1.1" id="Layer_1" xmlns="http://www.w3.org/2000/svg" xmlns:xlink="http://www.w3.org/1999/xlink" x="0px" y="0px"
	 viewBox="0 0 24 24" style="enable-background:new 0 0 24 24;" xml:space="preserve">
<style type="text/css">
	.st0{fill-rule:evenodd;clip-rule:evenodd;}
</style>
<title>Icon-Close</title>
<desc>Created with Sketch.</desc>
<g id="Icon-Close">
	<path id="X_1" class="st0" d="M13.6,12l2.8-2.8c0.2-0.2,0.2-0.6,0-0.8l-0.8-0.8c-0.2-0.2-0.6-0.2-0.8,0L12,10.4L9.2,7.7
		C9,7.4,8.7,7.4,8.4,7.7L7.7,8.4C7.4,8.7,7.4,9,7.7,9.2l2.8,2.8l-2.8,2.8c-0.2,0.2-0.2,0.6,0,0.8l0.8,0.8c0.2,0.2,0.6,0.2,0.8,0
		l2.8-2.8l2.8,2.8c0.2,0.2,0.6,0.2,0.8,0l0.8-0.8c0.2-0.2,0.2-0.6,0-0.8L13.6,12z"/>
</g>
</svg>
