<?xml version="1.0" encoding="utf-8"?>
<!-- Generator: Adobe Illustrator 23.0.1, SVG Export Plug-In . SVG Version: 6.00 Build 0)  -->
<svg version="1.1" id="Layer_1" xmlns="http://www.w3.org/2000/svg" xmlns:xlink="http://www.w3.org/1999/xlink" x="0px" y="0px"
	 viewBox="0 0 24 24" style="enable-background:new 0 0 24 24;" xml:space="preserve">
<style type="text/css">
	.st0{fill-rule:evenodd;clip-rule:evenodd;}
</style>
<title>Icon-Search</title>
<desc>Created with Sketch.</desc>
<g id="Icon-Search">
	<g id="Zoom_2_x2C__Magnifying_Glass_2" transform="translate(4.000000, 4.000000)">
		<path id="Shape" class="st0" d="M15.7,14.3l-3.1-3.1l0,0C13.5,10,14,8.6,14,7c0-3.9-3.1-7-7-7S0,3.1,0,7s3.1,7,7,7
			c1.6,0,3-0.5,4.2-1.4l0,0l3.1,3.1c0.2,0.2,0.5,0.3,0.7,0.3c0.3,0,0.5-0.1,0.7-0.3C16.1,15.3,16.1,14.7,15.7,14.3L15.7,14.3z M7,12
			c-2.8,0-5-2.2-5-5s2.2-5,5-5s5,2.2,5,5S9.8,12,7,12L7,12z"/>
	</g>
</g>
</svg>
